# xmcd
#
# Track frame offsets: 
#        150
#        17535
#        33480
#        50312
#        69265
#        84917
#        101770
#        118440
#        135435
#        151627
#        168162
#        186310
#        207695
#        224332
#        239235
#        255997
#        272102
#
# Disc length: 3993 seconds
#
# Revision: 10
# Processed by: cddbd v1.5.2PL0 Copyright (c) Steve Scherf et al.
# Submitted via: ExactAudioCopyFreeDBPlugin 1.0
#
DISCID=ee0f9711
DTITLE=2 Unlimited - Hits Unlimited
DYEAR=1995
DGENRE=House
TTITLE0=Do What's Good For Me
TTITLE1=No Limit
TTITLE2=Get Ready For This
TTITLE3=Twilight Zone
TTITLE4=No One
TTITLE5=Jump For Joy
TTITLE6=Tribal Dance
TTITLE7=The Magic Friend
TTITLE8=Workaholic
TTITLE9=Let The Beat Control Your Body
TTITLE10=Nothing Like The Rain
TTITLE11=Spread your Love
TTITLE12=The Real Thing
TTITLE13=Here I Go
TTITLE14=Maximum Overdrive
TTITLE15=Faces
TTITLE16=Radio Megamix - Bonus Track
EXTD=YEAR: 1995
EXTT0=
EXTT1=
EXTT2=
EXTT3=
EXTT4=
EXTT5=
EXTT6=
EXTT7=
EXTT8=
EXTT9=
EXTT10=
EXTT11=
EXTT12=
EXTT13=
EXTT14=
EXTT15=
EXTT16=
PLAYORDER=
